<svg xmlns="http://www.w3.org/2000/svg" viewBox="0 0 32 32"><title>Artboard 1</title><rect width="32" height="32" style="fill:#369"/><path d="M11.8,4.8h8.4a6.6,6.6,0,0,1,4.7,2,6.7,6.7,0,0,1,1.9,4.7v9a6.8,6.8,0,0,1-1.9,4.7,6.9,6.9,0,0,1-4.7,1.9H11.8a6.9,6.9,0,0,1-4.7-1.9,6.5,6.5,0,0,1-2-4.7v-9a6.3,6.3,0,0,1,2-4.7A6.6,6.6,0,0,1,11.8,4.8Zm8.4,2H11.8A5.6,5.6,0,0,0,8.3,8.1a5.2,5.2,0,0,0-1.4,3.4v9a5,5,0,0,0,1.4,3.3,5.3,5.3,0,0,0,3.5,1.5h8.4a4.7,4.7,0,0,0,3.4-1.5A4.5,4.5,0,0,0,25,20.5v-9a4.8,4.8,0,0,0-1.4-3.4A4.9,4.9,0,0,0,20.2,6.8Z" style="fill:#fff"/><path d="M16,10.2a5.3,5.3,0,0,1,4,1.7,5.7,5.7,0,0,1,1.7,4A6.1,6.1,0,0,1,20,20a5.6,5.6,0,0,1-4,1.6A5.6,5.6,0,0,1,12,20a5.7,5.7,0,0,1-1.7-4.1,5.3,5.3,0,0,1,1.7-4A5.3,5.3,0,0,1,16,10.2Zm2.7,2.9A4.4,4.4,0,0,0,16,12a4.6,4.6,0,0,0-2.8,1.1,4.6,4.6,0,0,0-1.1,2.8,4.4,4.4,0,0,0,1.1,2.7A4.1,4.1,0,0,0,16,19.7a3.9,3.9,0,0,0,2.7-1.1,4,4,0,0,0,1.2-2.7A4.2,4.2,0,0,0,18.7,13.1Z" style="fill:#fff"/><circle cx="22.1" cy="9.9" r="1.3" style="fill:#fff"/></svg>