<svg xmlns="http://www.w3.org/2000/svg" width="512" height="512" viewBox="0 0 512 512"><title>Artboard 1</title><path d="M274.5,338.6l-48,48A366.9,366.9,0,0,1,174.3,343a369.1,369.1,0,0,1-44.4-53.3l47.9-47.8L74.3,138.4l-53.1,53-.4.5C.7,213.6-.9,249.8,16.1,293.6c15.7,40.2,45.6,83.7,84.3,122.4s83.1,69.3,123.7,84.8c19.6,7.5,37.6,11.2,53.4,11.2,20.1,0,36.7-6,48.6-17.9l51.9-52Zm30.3,134.2c-12.2,12.2-37.7,12.2-70-.1-36.7-14-76.8-41.7-113.1-78s-63.4-75.6-77.5-112c-12.5-31.9-13-57.5-1.5-70.2l31.6-31.6,60.9,61L91.6,285.5l6.3,10.2A391.1,391.1,0,0,0,153,364.3a390,390,0,0,0,67.5,54.4l10.2,6.4,43.8-43.9,61,60.9Z" style="fill:#eb6607"/><path d="M414.7,380.4a202.4,202.4,0,0,1-26.5,21.5l16.9,24.9a239.6,239.6,0,0,0,30.5-24.6Z" style="fill:#eb6607"/><path d="M450.4,335a204.5,204.5,0,0,1-19.7,28.3l23.1,19.2A228,228,0,0,0,476.5,350Z" style="fill:#eb6607"/><path d="M439.2,68.4A233.5,233.5,0,0,0,78.3,106.2l25.2,16.4A203.1,203.1,0,0,1,274.1,30.1c112.1,0,203.4,91.2,203.4,203.4a201.2,201.2,0,0,1-16.7,80.8l27.6,12A233.6,233.6,0,0,0,439.2,68.4Z" style="fill:#eb6607"/><path d="M369.9,136.6a122.9,122.9,0,0,0-189.8,19.9l13.2,8.6A107,107,0,0,1,381.2,266l14.5,6.3a123.1,123.1,0,0,0-25.8-135.7Z" style="fill:#eb6607"/><path d="M314.9,201.5a70.1,70.1,0,0,0-108.4,11.3l7.6,5a61.1,61.1,0,0,1,112.3,33.3,59.4,59.4,0,0,1-5,24.3l8.3,3.6a70,70,0,0,0-14.8-77.5Z" style="fill:#eb6607"/></svg>