<svg xmlns="http://www.w3.org/2000/svg" viewBox="0 0 32 32"><rect width="32" height="32" style="fill:#4c75a3"/><path d="M15.7,23.1h1.5a1.7,1.7,0,0,0,.7-.3,1.4,1.4,0,0,0,.2-.7s0-2,.9-2.3,2.1,2,3.4,2.8a1.9,1.9,0,0,0,1.6.5h3.4s1.7-.1.9-1.5a13.8,13.8,0,0,0-2.5-2.9c-2.1-1.9-1.8-1.6.7-5s2.2-3.3,2-3.8-1.4-.4-1.4-.4H22.9l-.3.4a23.9,23.9,0,0,1-1.4,3c-1.7,2.8-2.4,3-2.6,2.8s-.5-1.7-.5-2.6c0-2.7.4-3.9-.8-4.2H15.5a8.7,8.7,0,0,0-3.1.3c-.4.2-.8.7-.6.7a1.4,1.4,0,0,1,1.2.6,4.5,4.5,0,0,1,.3,1.7s.2,3.2-.5,3.6-1.2-.3-2.7-2.9-1.3-2.7-1.3-2.7a1.5,1.5,0,0,0-.3-.5l-.6-.2H4.3a.9.9,0,0,0-.7.3c-.2.2,0,.6,0,.6s2.8,6.5,5.9,9.8a8.5,8.5,0,0,0,6.2,2.9Z" style="fill:#fff;fill-rule:evenodd"/></svg>